<svg width="40" height="41" viewBox="0 0 40 41" fill="none" xmlns="http://www.w3.org/2000/svg">
<path d="M34 24.5H38C38.5304 24.5 39.0391 24.2893 39.4142 23.9142C39.7893 23.5391 40 23.0304 40 22.5C40 21.9696 39.7893 21.4609 39.4142 21.0858C39.0391 20.7107 38.5304 20.5 38 20.5H34V18.5C33.9823 17.5786 33.841 16.6638 33.58 15.78C35.4599 15.0592 37.0785 13.7878 38.224 12.1321C39.3695 10.4763 39.9885 8.51333 40 6.5C40 5.96957 39.7893 5.46086 39.4142 5.08579C39.0391 4.71071 38.5304 4.5 38 4.5C37.4696 4.5 36.9609 4.71071 36.5858 5.08579C36.2107 5.46086 36 5.96957 36 6.5C35.9982 7.78969 35.581 9.04449 34.81 10.0784C34.0391 11.1123 32.9556 11.8703 31.72 12.24C30.7336 10.9759 29.4578 9.9676 28 9.3C28.0207 9.03374 28.0207 8.76626 28 8.5C28 6.37827 27.1571 4.34344 25.6569 2.84315C24.1566 1.34285 22.1217 0.5 20 0.5C17.8783 0.5 15.8434 1.34285 14.3431 2.84315C12.8429 4.34344 12 6.37827 12 8.5C11.9793 8.76626 11.9793 9.03374 12 9.3C10.5132 9.95663 9.20892 10.9658 8.2 12.24C6.97936 11.8561 5.9134 11.0921 5.1578 10.0594C4.40219 9.02676 3.99651 7.77958 4 6.5C4 5.96957 3.78929 5.46086 3.41421 5.08579C3.03914 4.71071 2.53043 4.5 2 4.5C1.46957 4.5 0.960859 4.71071 0.585786 5.08579C0.210714 5.46086 0 5.96957 0 6.5C0.0115323 8.51333 0.63053 10.4763 1.776 12.1321C2.92147 13.7878 4.54006 15.0592 6.42 15.78C6.15895 16.6638 6.01769 17.5786 6 18.5V20.5H2C1.46957 20.5 0.960859 20.7107 0.585786 21.0858C0.210714 21.4609 0 21.9696 0 22.5C0 23.0304 0.210714 23.5391 0.585786 23.9142C0.960859 24.2893 1.46957 24.5 2 24.5H6V26.5C6.00173 27.427 6.09552 28.3515 6.28 29.26C4.43256 30.0004 2.84807 31.2752 1.72931 32.9212C0.610557 34.5673 0.00843141 36.5098 0 38.5C0 39.0304 0.210714 39.5391 0.585786 39.9142C0.960859 40.2893 1.46957 40.5 2 40.5C2.53043 40.5 3.03914 40.2893 3.41421 39.9142C3.78929 39.5391 4 39.0304 4 38.5C4.00541 37.3336 4.3507 36.194 4.99362 35.2207C5.63655 34.2474 6.54923 33.4827 7.62 33.02C8.80941 35.2725 10.5908 37.1577 12.7723 38.4728C14.9538 39.7878 17.4528 40.4828 20 40.4828C22.5472 40.4828 25.0462 39.7878 27.2277 38.4728C29.4092 37.1577 31.1906 35.2725 32.38 33.02C33.4508 33.4827 34.3634 34.2474 35.0064 35.2207C35.6493 36.194 35.9946 37.3336 36 38.5C36 39.0304 36.2107 39.5391 36.5858 39.9142C36.9609 40.2893 37.4696 40.5 38 40.5C38.5304 40.5 39.0391 40.2893 39.4142 39.9142C39.7893 39.5391 40 39.0304 40 38.5C39.9916 36.5098 39.3894 34.5673 38.2707 32.9212C37.1519 31.2752 35.5674 30.0004 33.72 29.26C33.9045 28.3515 33.9983 27.427 34 26.5V24.5ZM18 36.3C15.7413 35.8389 13.7112 34.6116 12.2534 32.8258C10.7956 31.04 9.99953 28.8053 10 26.5V18.5C10 16.9087 10.6321 15.3826 11.7574 14.2574C12.8826 13.1321 14.4087 12.5 16 12.5H18V36.3ZM16 8.5C16 7.43913 16.4214 6.42172 17.1716 5.67157C17.9217 4.92143 18.9391 4.5 20 4.5C21.0609 4.5 22.0783 4.92143 22.8284 5.67157C23.5786 6.42172 24 7.43913 24 8.5H16ZM30 26.5C30.0005 28.8053 29.2044 31.04 27.7466 32.8258C26.2888 34.6116 24.2587 35.8389 22 36.3V12.5H24C25.5913 12.5 27.1174 13.1321 28.2426 14.2574C29.3679 15.3826 30 16.9087 30 18.5V26.5Z" fill="#3DFE90"/>
</svg>
