<svg width="20" height="41" viewBox="0 0 20 41" fill="none" xmlns="http://www.w3.org/2000/svg">
<path d="M7.50001 20.1665V38.002C7.50001 38.6645 7.7634 39.2999 8.23224 39.7684C8.70108 40.2368 9.33696 40.5 10 40.5C10.663 40.5 11.2989 40.2368 11.7678 39.7684C12.2366 39.2999 12.5 38.6645 12.5 38.002V20.1665C14.8566 19.5585 16.9105 18.1126 18.2765 16.0998C19.6425 14.087 20.227 11.6454 19.9203 9.23287C19.6136 6.82029 18.4368 4.6023 16.6106 2.99463C14.7843 1.38696 12.4339 0.5 10 0.5C7.56607 0.5 5.21569 1.38696 3.38943 2.99463C1.56317 4.6023 0.386413 6.82029 0.0797273 9.23287C-0.226958 11.6454 0.357487 14.087 1.72351 16.0998C3.08954 18.1126 5.14337 19.5585 7.50001 20.1665ZM10 5.52838C10.9889 5.52838 11.9556 5.82139 12.7778 6.37035C13.6001 6.91931 14.2409 7.69957 14.6194 8.61246C14.9978 9.52535 15.0968 10.5299 14.9039 11.499C14.711 12.4681 14.2348 13.3583 13.5355 14.057C12.8363 14.7557 11.9454 15.2315 10.9754 15.4243C10.0055 15.617 9.00022 15.5181 8.08659 15.14C7.17296 14.7618 6.39207 14.1215 5.84266 13.2999C5.29326 12.4783 5.00001 11.5124 5.00001 10.5243C5.00001 9.19932 5.5268 7.92858 6.46448 6.99166C7.40216 6.05473 8.67392 5.52838 10 5.52838Z" fill="#3DFE90"/>
</svg>
