<svg width="40" height="41" viewBox="0 0 40 41" fill="none" xmlns="http://www.w3.org/2000/svg">
<path d="M19.9158 0.501058C16.87 0.495514 13.8636 1.19412 11.1288 2.54295C8.39394 3.89178 6.00375 5.85476 4.14269 8.28038C2.28163 10.706 0.999471 13.5294 0.395184 16.5326C-0.209102 19.5359 -0.119359 22.6386 0.657487 25.6015C1.43433 28.5643 2.87751 31.3079 4.87562 33.6205C6.87372 35.9332 9.37333 37.753 12.1815 38.9396C14.9897 40.1262 18.0313 40.6477 21.0717 40.464C24.112 40.2803 27.0697 39.3963 29.7165 37.8801H29.8557H29.9551C33.7825 35.6882 36.778 32.2798 38.4715 28.1898C40.165 24.0999 40.4606 19.56 39.3118 15.2827C38.163 11.0055 35.6349 7.23315 32.1244 4.55778C28.6139 1.88241 24.3196 0.455508 19.9158 0.501058ZM21.9038 4.64095C25.4027 5.08733 28.6548 6.69109 31.1487 9.20001C33.6426 11.7089 35.2368 14.9806 35.6805 18.5006H21.9038V4.64095ZM19.9158 36.5001C15.8891 36.4725 12.0228 34.9093 9.09707 32.1259C6.17131 29.3426 4.40397 25.5463 4.15169 21.5033C3.89941 17.4603 5.18097 13.4715 7.73777 10.3419C10.2946 7.21234 13.9362 5.17496 17.9278 4.64095V20.5005C17.9356 20.74 17.9827 20.9765 18.067 21.2005V21.3605V21.5005L26.0189 35.2402C24.09 36.0707 22.0139 36.4993 19.9158 36.5001ZM29.5177 33.2202L23.355 22.5005H35.6805C35.4128 24.6096 34.73 26.6439 33.6718 28.4845C32.6137 30.3251 31.2015 31.935 29.5177 33.2202Z" fill="#3DFE90"/>
</svg>
