<svg width="46" height="58" viewBox="0 0 46 58" fill="none" xmlns="http://www.w3.org/2000/svg">
<path d="M44.9362 5.5235C44.6022 5.25558 44.2119 5.06529 43.794 4.96662C43.3761 4.86795 42.9412 4.8634 42.5212 4.95332C39.4491 5.59176 36.2777 5.5999 33.2023 4.97722C30.1269 4.35455 27.2126 3.11425 24.6387 1.33269C24.1575 1.00162 23.5857 0.824219 23 0.824219C22.4143 0.824219 21.8425 1.00162 21.3613 1.33269C18.7874 3.11425 15.8731 4.35455 12.7977 4.97722C9.72228 5.5999 6.55088 5.59176 3.47876 4.95332C3.05884 4.8634 2.62393 4.86795 2.206 4.96662C1.78808 5.06529 1.39777 5.25558 1.06377 5.5235C0.730206 5.79182 0.461514 6.13085 0.277432 6.51566C0.0933496 6.90047 -0.0014438 7.32129 1.66218e-05 7.7472V28.9863C-0.00253936 33.0738 0.979738 37.1027 2.86505 40.7376C4.75037 44.3725 7.48415 47.5081 10.8388 49.8834L21.3325 57.2957C21.8194 57.6395 22.4023 57.8242 23 57.8242C23.5977 57.8242 24.1806 57.6395 24.6675 57.2957L35.1612 49.8834C38.5158 47.5081 41.2496 44.3725 43.1349 40.7376C45.0203 37.1027 46.0025 33.0738 46 28.9863V7.7472C46.0014 7.32129 45.9066 6.90047 45.7226 6.51566C45.5385 6.13085 45.2698 5.79182 44.9362 5.5235ZM40.25 28.9863C40.2522 32.1644 39.4889 35.297 38.0237 38.1235C36.5585 40.95 34.4338 43.3886 31.8262 45.2364L23 51.4799L14.1738 45.2364C11.5662 43.3886 9.44147 40.95 7.97626 38.1235C6.51106 35.297 5.74781 32.1644 5.75001 28.9863V11.0257C11.7772 11.5373 17.8136 10.1506 23 7.06298C28.1864 10.1506 34.2228 11.5373 40.25 11.0257V28.9863ZM27.4275 22.4578L19.6938 30.1552L17.135 27.5894C16.5936 27.0526 15.8594 26.751 15.0938 26.751C14.3281 26.751 13.5939 27.0526 13.0525 27.5894C12.5111 28.1262 12.207 28.8543 12.207 29.6135C12.207 30.3727 12.5111 31.1008 13.0525 31.6377L17.6525 36.1991C17.9198 36.4663 18.2378 36.6784 18.5881 36.8231C18.9384 36.9679 19.3142 37.0424 19.6938 37.0424C20.0733 37.0424 20.4491 36.9679 20.7994 36.8231C21.1498 36.6784 21.4677 36.4663 21.735 36.1991L31.625 26.4776C32.1664 25.9407 32.4705 25.2126 32.4705 24.4534C32.4705 23.6942 32.1664 22.9661 31.625 22.4293C31.0836 21.8925 30.3494 21.5909 29.5837 21.5909C28.8181 21.5909 28.0839 21.8925 27.5425 22.4293L27.4275 22.4578Z" fill="white"/>
</svg>
