<svg width="48" height="58" viewBox="0 0 48 58" fill="none" xmlns="http://www.w3.org/2000/svg">
<path d="M19.8 10.2114C19.0049 10.3545 18.2991 10.8078 17.8381 11.4715C17.377 12.1352 17.1984 12.9549 17.3416 13.7503C17.4847 14.5457 17.9378 15.2516 18.6013 15.7128C19.2648 16.174 20.0842 16.3527 20.8794 16.2095C21.8698 16.0384 22.8725 15.9481 23.8775 15.9396C28.6485 15.9396 33.224 17.8355 36.5976 21.2101C39.9711 24.5847 41.8664 29.1617 41.8664 33.9341C41.8579 34.9395 41.7677 35.9425 41.5966 36.9332C41.4564 37.7123 41.6299 38.5153 42.0792 39.167C42.5285 39.8188 43.2172 40.2663 43.9951 40.4121H44.5347C45.2447 40.4237 45.9357 40.1829 46.4847 39.7326C47.0337 39.2822 47.4052 38.6516 47.5329 37.9529C47.8112 36.5903 47.9618 35.2047 47.9826 33.8142C47.9689 28.4751 46.1753 23.2931 42.8858 19.0886L45.6141 16.3895C46.1786 15.8247 46.4958 15.0588 46.4958 14.2601C46.4958 13.4615 46.1786 12.6955 45.6141 12.1308C45.0495 11.566 44.2838 11.2488 43.4854 11.2488C42.687 11.2488 41.9213 11.566 41.3567 12.1308L38.6584 14.8599C34.4636 11.6034 29.3072 9.83135 23.9974 9.82147C22.5891 9.81878 21.1838 9.94932 19.8 10.2114ZM18.0011 6.82239H29.9937C30.7889 6.82239 31.5515 6.50641 32.1137 5.94398C32.676 5.38154 32.9919 4.61871 32.9919 3.8233C32.9919 3.0279 32.676 2.26507 32.1137 1.70263C31.5515 1.14019 30.7889 0.824219 29.9937 0.824219H18.0011C17.206 0.824219 16.4434 1.14019 15.8811 1.70263C15.3189 2.26507 15.003 3.0279 15.003 3.8233C15.003 4.61871 15.3189 5.38154 15.8811 5.94398C16.4434 6.50641 17.206 6.82239 18.0011 6.82239ZM28.4647 34.0541C28.4647 34.0541 28.4647 33.9041 28.4647 33.8142C28.4647 33.7242 28.4647 33.6642 28.4647 33.5742L32.4822 29.5854C32.7617 29.3058 32.9835 28.9738 33.1348 28.6085C33.2861 28.2431 33.3639 27.8516 33.3639 27.4561C33.3639 27.0606 33.2861 26.6691 33.1348 26.3037C32.9835 25.9383 32.7617 25.6064 32.4822 25.3267C32.2027 25.0471 31.8708 24.8253 31.5055 24.674C31.1403 24.5226 30.7488 24.4447 30.3535 24.4447C29.9582 24.4447 29.5667 24.5226 29.2015 24.674C28.8362 24.8253 28.5044 25.0471 28.2248 25.3267L24.2373 29.3155H23.7576L5.1391 10.6912C4.57454 10.1265 3.80883 9.8092 3.01041 9.8092C2.212 9.8092 1.44629 10.1265 0.881729 10.6912C0.317167 11.2559 5.94863e-09 12.0219 0 12.8206C-5.94863e-09 13.6192 0.317167 14.3852 0.881729 14.9499L2.32084 16.3895L5.04915 19.1186C1.49176 23.736 -0.263377 29.491 0.111655 35.3085C0.486687 41.1259 2.96623 46.6078 7.08703 50.7299C11.2078 54.8519 16.688 57.3323 22.5036 57.7074C28.3192 58.0826 34.0724 56.3269 38.6884 52.7684L42.8558 56.9371C43.1345 57.2182 43.4661 57.4413 43.8315 57.5936C44.1968 57.7458 44.5887 57.8242 44.9845 57.8242C45.3803 57.8242 45.7721 57.7458 46.1375 57.5936C46.5028 57.4413 46.8344 57.2182 47.1132 56.9371C47.3942 56.6583 47.6172 56.3266 47.7694 55.9611C47.9216 55.5957 48 55.2037 48 54.8077C48 54.4118 47.9216 54.0198 47.7694 53.6544C47.6172 53.2889 47.3942 52.9572 47.1132 52.6784L28.4647 34.0541ZM23.9974 51.8087C20.6841 51.8178 17.4325 50.9114 14.6014 49.1894C11.7703 47.4674 9.46969 44.9966 7.95326 42.0497C6.43683 39.1027 5.76353 35.7941 6.00761 32.4887C6.25169 29.1832 7.40367 26.0094 9.3365 23.3174L19.5302 33.4843C19.5302 33.4843 19.5302 33.6342 19.5302 33.7242C19.5183 34.32 19.6248 34.9122 19.8436 35.4664C20.0624 36.0207 20.3891 36.5259 20.8047 36.9529C21.2203 37.3798 21.7166 37.7198 22.2646 37.9533C22.8127 38.1867 23.4017 38.3089 23.9974 38.3128H24.2373L34.401 48.5097C31.3584 50.6605 27.7231 51.8132 23.9974 51.8087Z" fill="white"/>
</svg>
