<svg width="57" height="58" viewBox="0 0 57 58" fill="none" xmlns="http://www.w3.org/2000/svg">
<path d="M28.5 15.0742C27.7441 15.0742 27.0192 15.3745 26.4847 15.909C25.9503 16.4434 25.65 17.1684 25.65 17.9242V29.3242C25.65 30.0801 25.9503 30.805 26.4847 31.3395C27.0192 31.874 27.7441 32.1742 28.5 32.1742C29.2559 32.1742 29.9808 31.874 30.5153 31.3395C31.0497 30.805 31.35 30.0801 31.35 29.3242V17.9242C31.35 17.1684 31.0497 16.4434 30.5153 15.909C29.9808 15.3745 29.2559 15.0742 28.5 15.0742ZM28.5 37.8742C27.9363 37.8742 27.3853 38.0414 26.9166 38.3545C26.4479 38.6677 26.0827 39.1128 25.8669 39.6336C25.6512 40.1543 25.5948 40.7274 25.7048 41.2802C25.8147 41.8331 26.0862 42.3409 26.4847 42.7395C26.8833 43.1381 27.3911 43.4095 27.944 43.5195C28.4968 43.6294 29.0699 43.573 29.5906 43.3573C30.1114 43.1416 30.5565 42.7763 30.8697 42.3076C31.1828 41.8389 31.35 41.2879 31.35 40.7242C31.35 39.9683 31.0497 39.2434 30.5153 38.709C29.9808 38.1745 29.2559 37.8742 28.5 37.8742ZM56.1735 16.6702L41.154 1.65072C40.6078 1.12993 39.8851 0.834717 39.1305 0.824219H17.8695C17.1149 0.834717 16.3922 1.12993 15.846 1.65072L0.8265 16.6702C0.305709 17.2164 0.0104979 17.9391 0 18.6937V39.9547C0.0104979 40.7093 0.305709 41.4321 0.8265 41.9782L15.846 56.9977C16.3922 57.5185 17.1149 57.8137 17.8695 57.8242H39.1305C39.8851 57.8137 40.6078 57.5185 41.154 56.9977L56.1735 41.9782C56.6943 41.4321 56.9895 40.7093 57 39.9547V18.6937C56.9895 17.9391 56.6943 17.2164 56.1735 16.6702ZM51.3 38.7577L37.9335 52.1242H19.0665L5.7 38.7577V19.8907L19.0665 6.52422H37.9335L51.3 19.8907V38.7577Z" fill="white"/>
</svg>
