<svg width="57" height="58" viewBox="0 0 57 58" fill="none" xmlns="http://www.w3.org/2000/svg">
<path d="M54.4091 37.0969H49.2273V29.3242C49.2273 28.6371 48.9543 27.9781 48.4684 27.4922C47.9825 27.0063 47.3235 26.7333 46.6364 26.7333H31.0909V21.5515H36.2727C36.9599 21.5515 37.6189 21.2785 38.1048 20.7926C38.5907 20.3067 38.8636 19.6477 38.8636 18.9606V3.41513C38.8636 2.72798 38.5907 2.06897 38.1048 1.58308C37.6189 1.09719 36.9599 0.824219 36.2727 0.824219H20.7273C20.0401 0.824219 19.3811 1.09719 18.8952 1.58308C18.4093 2.06897 18.1364 2.72798 18.1364 3.41513V18.9606C18.1364 19.6477 18.4093 20.3067 18.8952 20.7926C19.3811 21.2785 20.0401 21.5515 20.7273 21.5515H25.9091V26.7333H10.3636C9.67648 26.7333 9.01748 27.0063 8.53159 27.4922C8.0457 27.9781 7.77273 28.6371 7.77273 29.3242V37.0969H2.59091C1.90376 37.0969 1.24475 37.3699 0.75886 37.8558C0.27297 38.3417 0 39.0007 0 39.6879V55.2333C0 55.9205 0.27297 56.5795 0.75886 57.0654C1.24475 57.5513 1.90376 57.8242 2.59091 57.8242H18.1364C18.8235 57.8242 19.4825 57.5513 19.9684 57.0654C20.4543 56.5795 20.7273 55.9205 20.7273 55.2333V39.6879C20.7273 39.0007 20.4543 38.3417 19.9684 37.8558C19.4825 37.3699 18.8235 37.0969 18.1364 37.0969H12.9545V31.9151H44.0455V37.0969H38.8636C38.1765 37.0969 37.5175 37.3699 37.0316 37.8558C36.5457 38.3417 36.2727 39.0007 36.2727 39.6879V55.2333C36.2727 55.9205 36.5457 56.5795 37.0316 57.0654C37.5175 57.5513 38.1765 57.8242 38.8636 57.8242H54.4091C55.0962 57.8242 55.7552 57.5513 56.2411 57.0654C56.727 56.5795 57 55.9205 57 55.2333V39.6879C57 39.0007 56.727 38.3417 56.2411 37.8558C55.7552 37.3699 55.0962 37.0969 54.4091 37.0969ZM15.5455 42.2788V52.6424H5.18182V42.2788H15.5455ZM23.3182 16.3697V6.00604H33.6818V16.3697H23.3182ZM51.8182 52.6424H41.4545V42.2788H51.8182V52.6424Z" fill="white"/>
</svg>
