<svg width="1261" height="5" viewBox="0 0 1261 5" fill="none" xmlns="http://www.w3.org/2000/svg">
<path d="M4.16699 5H0V1H4.16699V5ZM20.833 5H12.5V1H20.833V5ZM37.5 5H29.167V1H37.5V5ZM595.982 4H592.004L50.0039 5L50 3V5H45.833V1H49.9961L591.996 0L592 2V0H595.982V4ZM611.911 4H603.946V0H611.911V4ZM627.839 4H619.875V0H627.839V4ZM643.768 4H635.804V0H643.768V4ZM659.696 4H651.732V0H659.696V4ZM675.625 4H667.661V0H675.625V4ZM691.554 4H683.589V0H691.554V4ZM707.482 4H699.518V0H707.482V4ZM723.411 4H715.446V0H723.411V4ZM739.339 4H731.375V0H739.339V4ZM755.268 4H747.304V0H755.268V4ZM771.196 4H763.232V0H771.196V4ZM787.125 4H779.161V0H787.125V4ZM803.054 4H795.089V0H803.054V4ZM818.982 4H811.018V0H818.982V4ZM834.91 4H826.946V0H834.91V4ZM850.839 4H842.875V0H850.839V4ZM866.768 4H858.804V0H866.768V4ZM882.696 4H874.732V0H882.696V4ZM898.625 4H890.661V0H898.625V4ZM914.554 4H906.589V0H914.554V4ZM930.482 4H922.518V0H930.482V4ZM946.411 4H938.446V0H946.411V4ZM962.339 4H954.375V0H962.339V4ZM978.268 4H970.304V0H978.268V4ZM994.196 4H986.232V0H994.196V4ZM1010.12 4H1002.16V0H1010.12V4ZM1026.05 4H1018.09V0H1026.05V4ZM1041.98 4H1034.02V0H1041.98V4ZM1057.91 4H1049.95V0H1057.91V4ZM1073.84 4H1065.88V0H1073.84V4ZM1089.77 4H1081.8V0H1089.77V4ZM1105.7 4H1097.73V0H1105.7V4ZM1121.62 4H1113.66V0H1121.62V4ZM1137.55 4H1129.59V0H1137.55V4ZM1153.48 4H1145.52V0H1153.48V4ZM1169.41 4H1161.45V0H1169.41V4ZM1185.34 4H1177.38V0H1185.34V4ZM1201.27 4H1193.3V0H1201.27V4ZM1217.2 4H1209.23V0H1217.2V4ZM1233.12 4H1225.16V0H1233.12V4ZM1249.05 4H1241.09V0H1249.05V4ZM1261 4H1257.02V0H1261V4Z" fill="black" fill-opacity="0.2"/>
</svg>
