<svg width="23" height="22" viewBox="0 0 23 22" fill="none" xmlns="http://www.w3.org/2000/svg">
<path d="M0 2.50473C0 1.77871 0.259016 1.17975 0.777027 0.70786C1.29504 0.235946 1.96848 0 2.7973 0C3.61133 0 4.26994 0.232309 4.77317 0.69697C5.29118 1.17614 5.55019 1.80049 5.55019 2.57008C5.55019 3.26705 5.29859 3.84784 4.79537 4.3125C4.27736 4.79167 3.59653 5.03125 2.7529 5.03125H2.7307C1.91666 5.03125 1.25805 4.79167 0.754826 4.3125C0.251601 3.83333 0 3.23074 0 2.50473ZM0.28861 21.5625V7.01326H5.21718V21.5625H0.28861ZM7.94788 21.5625H12.8764V13.4384C12.8764 12.9302 12.9357 12.5382 13.0541 12.2623C13.2613 11.7686 13.5758 11.3512 13.9976 11.0099C14.4194 10.6687 14.9485 10.4981 15.5849 10.4981C17.2426 10.4981 18.0714 11.5944 18.0714 13.7869V21.5625H23V13.2206C23 11.0716 22.482 9.44176 21.4459 8.33097C20.4099 7.22017 19.0409 6.66477 17.3388 6.66477C15.4295 6.66477 13.9421 7.47064 12.8764 9.08239V9.12595H12.8542L12.8764 9.08239V7.01326H7.94788C7.97747 7.4779 7.99228 8.92265 7.99228 11.3475C7.99228 13.7724 7.97747 17.1774 7.94788 21.5625Z" fill="white"/>
</svg>
